<svg
	width="526"
	height="526"
	viewBox="0 0 526 526"
	fill="none"
	xmlns="http://www.w3.org/2000/svg"
>
	<rect width="100%" height="100%" rx="15" fill="#242424"/>
	<path
		d="M391 203.346C386.452 210.698 382.658 218.718 378.344 226.358C370.046 241.054 360.819 255.121 350.243 267.329C343.397 275.231 339.449 277.812 333.535 267.914C331.103 263.844 329.124 255.581 324.234 255.218C313.483 254.419 302.923 267.343 296.298 276.1C281.784 295.287 268.943 315.871 253.349 333.86C233.362 356.917 211.684 377.22 185.254 386.651C173.27 390.926 159.94 393.176 147.885 388.029C128.165 379.608 135.914 346.381 139.879 327.721C152.12 270.118 180.803 220.235 218.936 184.928C234.634 170.393 251.712 157.189 269.359 146.713C276.893 142.241 287.469 136.939 295.999 135.437C305.719 133.726 319.211 136.567 318.587 152.477C317.664 176.029 301.259 194.394 287.695 207.523C271.792 222.914 226.277 181.315 234.946 247.7C243.616 314.085 175.719 267.329 175.719 267.329"
		stroke="white"
		stroke-width="20"
		stroke-linecap="round"
	/>
</svg>
